<?xml version="1.0" encoding="UTF-8"?>
<svg version="1.1" xmlns="http://www.w3.org/2000/svg" width="100" height="100">
<path d="M0 0 C4.56208284 4.17079308 7.56589981 9.05336249 9.31640625 14.95703125 C10.82082855 19.53373765 14.04582428 21.39379686 17.84375 24.1171875 C21.98613107 27.40562383 23.5302326 31.1268061 24.94140625 36.20703125 C25.07441994 43.92182526 22.26703131 49.41458165 16.9921875 54.9296875 C11.22289307 60.44962146 5.47018105 64.33502947 -1.80859375 67.58203125 C-2.74916626 68.00464233 -2.74916626 68.00464233 -3.70874023 68.43579102 C-14.04218285 72.8118009 -24.07247442 74.32451089 -35.24609375 74.20703125 C-36.365 74.21863281 -37.48390625 74.23023437 -38.63671875 74.2421875 C-45.68765179 74.21724316 -52.7128563 74.1152687 -57.99609375 68.83203125 C-58.25246781 64.73004625 -57.72653135 62.78001222 -55.19921875 59.5 C-52.83297433 56.90937033 -50.41731525 54.37126827 -47.99609375 51.83203125 C-46.53322684 50.18758471 -45.09443317 48.52132582 -43.68359375 46.83203125 C-43.06871094 46.11015625 -42.45382813 45.38828125 -41.8203125 44.64453125 C-37.23018013 37.56766763 -35.29832663 29.61481472 -33.55859375 21.45703125 C-28.82130465 0.53877184 -28.82130465 0.53877184 -21.99609375 -5.16796875 C-14.74871007 -8.12278441 -5.88184065 -4.32457336 0 0 Z M-15.18359375 9.26953125 C-17.82762463 11.54886822 -18.39417887 13.42118025 -18.99609375 16.83203125 C-18.11163285 19.77910371 -18.11163285 19.77910371 -15.99609375 21.83203125 C-13.11846762 22.40755648 -11.71304309 22.2523119 -9.18359375 20.76953125 C-7.28513354 17.67204353 -7.4914132 15.36479508 -7.99609375 11.83203125 C-10.50079248 9.53605742 -11.78594727 8.59000195 -15.18359375 9.26953125 Z M-6.37231445 37.36694336 C-8.41902422 38.1390351 -10.47003845 38.89880088 -12.52148438 39.65820312 C-13.82450319 40.14898507 -15.12724699 40.6404979 -16.4296875 41.1328125 C-18.2094397 41.80050659 -18.2094397 41.80050659 -20.02514648 42.48168945 C-22.68993259 43.69287623 -24.16871426 44.59929534 -25.99609375 46.83203125 C-22.00315779 48.1630099 -19.64254168 46.80758361 -15.921875 45.3046875 C-15.23804245 45.03692001 -14.5542099 44.76915253 -13.84965515 44.49327087 C-11.66573158 43.63578046 -9.48722808 42.76536108 -7.30859375 41.89453125 C-5.82911443 41.31099031 -4.34930034 40.72829735 -2.86914062 40.14648438 C0.75916653 38.71814509 4.38266633 37.2781891 8.00390625 35.83203125 C8.00390625 34.84203125 8.00390625 33.85203125 8.00390625 32.83203125 C3.15732568 32.83203125 -1.84346386 35.6533682 -6.37231445 37.36694336 Z M-2.83984375 46.5703125 C-3.60534546 46.85174606 -4.37084717 47.13317963 -5.1595459 47.42314148 C-6.7777119 48.02003658 -8.39491942 48.61953558 -10.01123047 49.22143555 C-12.48319963 50.13974125 -14.96004293 51.04388757 -17.4375 51.94726562 C-19.00943262 52.52908939 -20.5810579 53.11174431 -22.15234375 53.6953125 C-22.89303101 53.96418777 -23.63371826 54.23306305 -24.39685059 54.51008606 C-29.27019768 56.3343161 -29.27019768 56.3343161 -32.99609375 59.83203125 C-28.70905978 61.26104257 -25.68908148 59.51732776 -21.64453125 57.97265625 C-20.8298941 57.66761169 -20.01525696 57.36256714 -19.17593384 57.04827881 C-17.45438934 56.40046933 -15.73464737 55.74785241 -14.01660156 55.09082031 C-11.37990998 54.08539307 -8.73558527 53.10241975 -6.08984375 52.12109375 C-4.42006481 51.48962318 -2.75077621 50.85685419 -1.08203125 50.22265625 C-0.28727386 49.92877014 0.50748352 49.63488403 1.32632446 49.33209229 C3.25448109 48.58486419 5.13539932 47.71793173 7.00390625 46.83203125 C7.33390625 45.84203125 7.66390625 44.85203125 8.00390625 43.83203125 C4.05209269 43.83203125 0.81564072 45.21337269 -2.83984375 46.5703125 Z " fill="#FFFFFF" transform="translate(66.99609375,15.16796875)"/>
<path d="M0 0 C9.5094797 4.40719277 15.21890058 11.01694435 19.2890625 20.55078125 C20.19921875 23.1640625 20.19921875 23.1640625 20.69921875 25.94140625 C20.86421875 26.67488281 21.02921875 27.40835937 21.19921875 28.1640625 C22.85171362 28.86512093 24.52289458 29.52206601 26.19921875 30.1640625 C32.08361298 34.2890823 36.98238841 39.21731306 39.19921875 46.1640625 C40.23650628 54.16861762 40.17080693 61.57101295 35.19921875 68.1640625 C22.83481801 83.77695142 4.38173954 95.61071353 -15.54199219 98.90332031 C-20.38802834 99.46272008 -25.23909541 99.5566203 -30.11328125 99.6015625 C-31.11576904 99.61195557 -32.11825684 99.62234863 -33.15112305 99.63305664 C-42.22141872 99.5242281 -50.58045016 97.9755485 -57.80078125 92.1640625 C-61.69937339 87.97495027 -61.42148784 84.04495123 -61.26171875 78.5390625 C-60.13804102 70.31145606 -55.02209594 65.218499 -49.23828125 59.6640625 C-40.82260086 51.54674095 -38.37537185 42.88299385 -35.23876953 31.91918945 C-31.84358859 20.41520254 -26.96063862 8.30890865 -17.80078125 0.1640625 C-12.7048454 -2.38390542 -5.3088033 -1.58449638 0 0 Z M-17.80078125 7.1640625 C-25.65624811 16.42524448 -29.16221672 28.6136139 -32.42578125 40.1015625 C-34.56194157 47.5093209 -36.31567889 53.5776419 -41.578125 59.34765625 C-42.10269287 59.92418945 -42.62726074 60.50072266 -43.16772461 61.09472656 C-44.73771379 62.78371478 -46.32758262 64.45101286 -47.92578125 66.11328125 C-53.35950472 71.80906422 -56.2853053 75.916828 -56.12890625 83.9453125 C-55.92129283 86.41686111 -55.92129283 86.41686111 -53.92578125 89.0390625 C-46.7367039 93.9276351 -38.61860536 94.69826542 -30.11328125 94.6015625 C-29.15212402 94.59253906 -28.1909668 94.58351563 -27.20068359 94.57421875 C-7.73751451 94.10546204 11.51178119 85.42296068 25.54296875 71.90625 C31.08003724 65.9880065 34.26918249 60.85442208 34.63671875 52.6015625 C34.41647849 46.38401047 32.52554434 43.42209229 28.0703125 39.09765625 C23.93740865 35.1168089 23.93740865 35.1168089 19.03515625 32.28125 C16.27423614 30.60120074 16.13808808 28.60076141 15.32421875 25.5390625 C12.61723113 16.80144994 8.47222443 11.17923799 0.6328125 6.3671875 C-6.16731237 3.00532801 -11.96331158 1.45926259 -17.80078125 7.1640625 Z " fill="#FFFFFF" transform="translate(60.80078125,0.8359375)"/>
</svg>
