<?xml version="1.0" encoding="UTF-8"?>
<svg version="1.1" xmlns="http://www.w3.org/2000/svg" width="100" height="100">
<path d="M0 0 C1.8569751 -0.00472824 1.8569751 -0.00472824 3.75146484 -0.009552 C5.11295609 -0.00776222 6.47444701 -0.00571127 7.8359375 -0.00341797 C9.22216814 -0.00409106 10.60839867 -0.00506113 11.99462891 -0.00631714 C14.90333172 -0.00779387 17.81200387 -0.00564037 20.72070312 -0.00097656 C24.45690348 0.00472073 28.19303202 0.00144159 31.92922974 -0.00454903 C34.79273016 -0.00815532 37.65621343 -0.00701574 40.51971436 -0.00442123 C41.89768482 -0.00375215 43.27565682 -0.00457973 44.65362549 -0.00690079 C46.57637504 -0.00942839 48.49913002 -0.0048957 50.421875 0 C52.06615479 0.00119339 52.06615479 0.00119339 53.74365234 0.00241089 C56.2109375 0.12939453 56.2109375 0.12939453 57.2109375 1.12939453 C57.32563599 3.76707036 57.36689473 6.36990273 57.35546875 9.00830078 C57.35311722 9.84494766 57.35076569 10.68159454 57.3483429 11.54359436 C57.2625174 22.22914039 56.69938611 32.89306296 56.09399414 43.55981445 C55.89586603 47.11301083 55.71837717 50.66690501 55.54101562 54.22119141 C55.41531852 56.49144359 55.28841141 58.76162918 55.16015625 61.03173828 C55.08495003 62.6175193 55.08495003 62.6175193 55.00822449 64.2353363 C54.94838882 65.21478714 54.88855316 66.19423798 54.8269043 67.20336914 C54.78027145 68.06095322 54.73363861 68.91853729 54.68559265 69.80210876 C54.10039327 72.67140488 53.30711949 74.08329018 51.2109375 76.12939453 C48.97216797 76.6373291 48.97216797 76.6373291 46.328125 76.64697266 C45.33699707 76.6595813 44.34586914 76.67218994 43.32470703 76.68518066 C42.25591309 76.67708374 41.18711914 76.66898682 40.0859375 76.66064453 C38.43827393 76.66638489 38.43827393 76.66638489 36.75732422 76.67224121 C34.43390995 76.67496435 32.11046524 76.66757522 29.78710938 76.65087891 C26.22456713 76.62947641 22.66404179 76.65066852 19.1015625 76.67626953 C16.8463497 76.67362633 14.59113816 76.66850151 12.3359375 76.66064453 C11.26714355 76.66874146 10.19834961 76.67683838 9.09716797 76.68518066 C8.10604004 76.67257202 7.11491211 76.65996338 6.09375 76.64697266 C5.22121582 76.64379028 4.34868164 76.64060791 3.44970703 76.6373291 C1.2109375 76.12939453 1.2109375 76.12939453 -0.54426575 74.43856812 C-2.00482127 71.7291489 -2.32679503 69.72902224 -2.58862305 66.66503906 C-2.68850021 65.56934601 -2.78837738 64.47365295 -2.89128113 63.34475708 C-2.98516617 62.16251556 -3.07905121 60.98027405 -3.17578125 59.76220703 C-3.28251663 58.53589569 -3.38925201 57.30958435 -3.4992218 56.04611206 C-3.7801032 52.78069582 -4.04893121 49.51456172 -4.31286621 46.2477417 C-4.58180808 42.97280794 -4.87179718 39.69971499 -5.15820312 36.42626953 C-5.37359485 33.89251701 -5.58782337 31.35866528 -5.80078125 28.82470703 C-5.90073898 27.66270782 -6.00069672 26.50070862 -6.10368347 25.30349731 C-6.74858427 17.26394711 -7.18767222 9.19392569 -6.7890625 1.12939453 C-5.00989783 -0.64977014 -2.40592951 0.00174618 0 0 Z M-1.7890625 4.12939453 C-2.19328854 13.19967464 -2.19328854 13.19967464 -0.7890625 18.12939453 C1.85551501 18.4967813 4.50072763 18.84846773 7.1484375 19.19189453 C7.88384766 19.29566406 8.61925781 19.39943359 9.37695312 19.50634766 C13.98779042 20.09025282 18.04786718 20.00876502 22.64233398 19.3894043 C28.16222826 18.83064682 33.73152417 19.02859316 39.2734375 19.06689453 C40.52060547 19.07140625 41.76777344 19.07591797 43.05273438 19.08056641 C46.10548973 19.09226279 49.15822011 19.11019505 52.2109375 19.12939453 C52.2109375 14.17939453 52.2109375 9.22939453 52.2109375 4.12939453 C34.3909375 4.12939453 16.5709375 4.12939453 -1.7890625 4.12939453 Z M25.2109375 29.12939453 C24.8809375 30.77939453 24.5509375 32.42939453 24.2109375 34.12939453 C26.6859375 34.62439453 26.6859375 34.62439453 29.2109375 35.12939453 C29.5409375 33.47939453 29.8709375 31.82939453 30.2109375 30.12939453 C28.5609375 29.79939453 26.9109375 29.46939453 25.2109375 29.12939453 Z M14.2109375 39.12939453 C14.2109375 40.44939453 14.2109375 41.76939453 14.2109375 43.12939453 C15.5309375 43.12939453 16.8509375 43.12939453 18.2109375 43.12939453 C18.2109375 41.80939453 18.2109375 40.48939453 18.2109375 39.12939453 C16.8909375 39.12939453 15.5709375 39.12939453 14.2109375 39.12939453 Z M32.2109375 41.12939453 C32.2109375 41.78939453 32.2109375 42.44939453 32.2109375 43.12939453 C32.8709375 43.12939453 33.5309375 43.12939453 34.2109375 43.12939453 C34.2109375 42.46939453 34.2109375 41.80939453 34.2109375 41.12939453 C33.5509375 41.12939453 32.8909375 41.12939453 32.2109375 41.12939453 Z M24.2109375 47.12939453 C24.2109375 48.44939453 24.2109375 49.76939453 24.2109375 51.12939453 C25.5309375 51.12939453 26.8509375 51.12939453 28.2109375 51.12939453 C28.2109375 49.80939453 28.2109375 48.48939453 28.2109375 47.12939453 C26.8909375 47.12939453 25.5709375 47.12939453 24.2109375 47.12939453 Z M18.2109375 57.12939453 C18.2109375 57.78939453 18.2109375 58.44939453 18.2109375 59.12939453 C18.8709375 59.12939453 19.5309375 59.12939453 20.2109375 59.12939453 C20.2109375 58.46939453 20.2109375 57.80939453 20.2109375 57.12939453 C19.5509375 57.12939453 18.8909375 57.12939453 18.2109375 57.12939453 Z M26.2109375 65.12939453 C26.2109375 65.78939453 26.2109375 66.44939453 26.2109375 67.12939453 C26.8709375 67.12939453 27.5309375 67.12939453 28.2109375 67.12939453 C28.2109375 66.46939453 28.2109375 65.80939453 28.2109375 65.12939453 C27.5509375 65.12939453 26.8909375 65.12939453 26.2109375 65.12939453 Z " fill="#FFFFFF" transform="translate(24.7890625,23.87060546875)"/>
<path d="M0 0 C1.4540625 0.0309375 1.4540625 0.0309375 2.9375 0.0625 C4.0625 2.375 4.0625 2.375 4.9375 5.0625 C3.9475 6.5475 3.9475 6.5475 2.9375 8.0625 C-0.125 8.3125 -0.125 8.3125 -3.0625 8.0625 C-4.0625 7.0625 -4.0625 7.0625 -4.1875 4.0625 C-4.02164894 0.08207447 -4.02164894 0.08207447 0 0 Z " fill="#FFFFFF" transform="translate(42.0625,11.9375)"/>
<path d="M0 0 C1.98 0 3.96 0 6 0 C7 3 7 3 6 6 C4.02 6 2.04 6 0 6 C0 4.02 0 2.04 0 0 Z " fill="#FFFFFF" transform="translate(52,8)"/>
<path d="M0 0 C1.32 0 2.64 0 4 0 C4 1.32 4 2.64 4 4 C2.68 4 1.36 4 0 4 C0 2.68 0 1.36 0 0 Z " fill="#FFFFFF" transform="translate(46,0)"/>
</svg>
