<?xml version="1.0" encoding="UTF-8"?>
<svg version="1.1" xmlns="http://www.w3.org/2000/svg" width="256" height="256">
<path d="M0 0 C4.63042771 0.4696721 8.87700858 1.44488012 13.30249023 2.85766602 C14.50320663 3.23798477 15.70392303 3.61830353 16.94102478 4.01014709 C18.23025292 4.42461378 19.51944169 4.83920298 20.80859375 5.25390625 C22.14364972 5.67894634 23.47886252 6.10349412 24.81422424 6.52757263 C28.30918476 7.63893037 31.8019895 8.75691615 35.29437256 9.87634277 C38.86618295 11.01991616 42.44001232 12.15714318 46.01367188 13.29492188 C53.01109462 15.5237766 60.00624988 17.75964436 67 20 C67 24.31779652 64.4222652 26.35990101 61.6875 29.4375 C61.14569092 30.05858643 60.60388184 30.67967285 60.0456543 31.31958008 C56.08274941 35.84046198 52.02280308 40.26919134 47.93188477 44.67407227 C45.03307055 47.81371586 42.29696834 51.04112329 39.625 54.375 C35.01428361 60.10522487 30.02243362 65.43085078 24.99609375 70.79296875 C20.61883286 75.4639332 16.4485711 80.29747541 12.30078125 85.171875 C11.28418244 86.36486315 10.26724412 87.55756205 9.25 88.75 C8.73518066 89.35368408 8.22036133 89.95736816 7.68994141 90.5793457 C3.86787748 95.03960984 -0.07221266 99.37267114 -4.06982422 103.67529297 C-6.96748224 106.81503117 -9.70346573 110.04166489 -12.375 113.375 C-16.98571639 119.10522487 -21.97756638 124.43085078 -27.00390625 129.79296875 C-31.38116714 134.4639332 -35.5514289 139.29747541 -39.69921875 144.171875 C-40.71581756 145.36486315 -41.73275588 146.55756205 -42.75 147.75 C-43.26481934 148.35368408 -43.77963867 148.95736816 -44.31005859 149.5793457 C-47.6910262 153.52486018 -51.15115943 157.38105704 -54.6875 161.1875 C-58.95518457 165.79905556 -62.97719756 170.54916958 -66.91796875 175.44140625 C-69.85057656 179.04526763 -72.90924631 182.53159795 -76 186 C-80.32000636 185.37796341 -83.6356494 183.83092479 -87.49609375 181.82421875 C-88.42886391 181.34210434 -88.42886391 181.34210434 -89.38047791 180.85025024 C-91.40289869 179.80242448 -93.42029023 178.7453182 -95.4375 177.6875 C-96.83465342 176.96025242 -98.23195272 176.23328505 -99.62939453 175.5065918 C-111.16984702 169.49118103 -122.62121251 163.31592588 -134 157 C-134.85625977 156.52481934 -135.71251953 156.04963867 -136.59472656 155.56005859 C-138.73025749 154.37416092 -140.86536381 153.18750725 -143 152 C-141.28974534 148.33565049 -139.24002076 146.0654411 -136.3125 143.25 C-133.33324408 140.33431284 -130.43613153 137.43763435 -127.75 134.25 C-124.36970616 130.29022721 -120.69777995 126.6593165 -117 123 C-112.78988398 118.8335404 -108.72758779 114.64714586 -104.90234375 110.12109375 C-101.67429841 106.52185634 -98.1922629 103.17331789 -94.75537109 99.77490234 C-91.913276 96.9524361 -89.15009878 94.12416268 -86.5625 91.0625 C-82.686001 86.48648238 -78.3747532 82.35013799 -74.11572266 78.13525391 C-70.54318081 74.58558242 -67.15403123 70.96851023 -63.90234375 67.12109375 C-60.67429841 63.52185634 -57.1922629 60.17331789 -53.75537109 56.77490234 C-50.913276 53.9524361 -48.15009878 51.12416268 -45.5625 48.0625 C-41.686001 43.48648238 -37.3747532 39.35013799 -33.11572266 35.13525391 C-29.54318081 31.58558242 -26.15403123 27.96851023 -22.90234375 24.12109375 C-19.68326541 20.53185445 -16.21160241 17.19212194 -12.78393555 13.8034668 C-8.65115152 9.69960443 -4.75389385 5.4546207 -1 1 C-0.67 0.67 -0.34 0.34 0 0 Z M-16.71875 29.58203125 C-20.85396734 34.23415075 -23 37.62302467 -23 44 C-22.43746229 47.4537199 -21.84785935 48.17387503 -19.375 51 C-15.41660024 53.34571837 -13.52614799 53.64659257 -9 53 C-2.9814822 50.83333359 -0.19300901 47.23729902 3.3125 42.0625 C4.37854312 38.86437065 4.34644278 36.34894691 4 33 C2.19728367 29.46133462 0.95310077 27.51141992 -2.5625 25.625 C-7.99191415 24.23284253 -12.67242187 25.85757013 -16.71875 29.58203125 Z M30.6875 30.5625 C28.53202866 33.67595861 28.2871949 36.26646636 28 40 C30.73832802 42.25641931 30.73832802 42.25641931 33.4375 41.875 C36.55982778 40.80883929 37.94763707 39.56545366 40 37 C40.98617135 35.05714832 40.98617135 35.05714832 41 33 C40.14209817 30.78228936 40.14209817 30.78228936 39 29 C35.526511 28.68422827 33.62436479 28.5781319 30.6875 30.5625 Z M-27 81 C-28.52199443 85.56598329 -28.74716734 89.39892714 -26.6875 93.8125 C-25.01607792 96.22038518 -25.01607792 96.22038518 -22 98 C-16.39476339 98.45944562 -12.80701708 98.20467806 -8 95 C-4.57622481 91.61416137 -1.19309901 87.76775248 -0.84765625 82.81640625 C-1.23180105 78.78637808 -1.74769552 76.38634123 -4 72.9375 C-13.41805722 66.85500471 -21.22437382 73.24415914 -27 81 Z M-70 90 C-70.50125283 93.66857722 -70.50125283 93.66857722 -70 97 C-69.67 97.33 -69.34 97.66 -69 98 C-64.83567262 97.84285557 -62.67012052 97.61857279 -59.5625 94.75 C-57.87884124 91.78676059 -57.45835185 90.3401636 -58 87 C-59.81417709 84.81026503 -59.81417709 84.81026503 -62.3125 84.5625 C-66.27672585 85.20783909 -67.63249279 86.82077603 -70 90 Z M-57 119 C-58.05845809 121.53349802 -58.05845809 121.53349802 -58 124 C-57.01 125.485 -57.01 125.485 -56 127 C-51.87203885 126.7618484 -49.65367367 126.60339108 -46.5625 123.75 C-44.87884124 120.78676059 -44.45835185 119.3401636 -45 116 C-46.81417709 113.81026503 -46.81417709 113.81026503 -49.3125 113.5625 C-53.20176625 114.19563637 -54.57920081 115.97400101 -57 119 Z M-109.5 124.86328125 C-112.03285916 129.25181154 -112.48057065 133.04387402 -111.59765625 138.015625 C-110.67824333 141.06831625 -109.72497002 142.32309537 -107 144 C-102.63191723 145.05679422 -100.21177336 145.37095103 -95.9375 144.0625 C-91.29577582 140.80341706 -87.04399162 137.18496936 -85.23046875 131.65234375 C-84.6728971 127.98217431 -84.76340063 125.60464284 -86.125 122.125 C-89.00962604 118.85575715 -91.46568241 117.31383769 -95.75 116.4375 C-101.36633581 117.40955812 -105.92437298 120.42168206 -109.5 124.86328125 Z " fill="#FFFFFF" transform="translate(154,35)"/>
<path d="M0 0 C0.66 0 1.32 0 2 0 C19.15708187 34.78247119 22.94151606 69.51707796 11.37890625 106.83984375 C11.16618576 107.45271744 10.95346527 108.06559113 10.73429871 108.69703674 C9.94708143 111.03934237 9.94708143 111.03934237 9.42333984 113.66584778 C8.29762373 117.97763308 7.44937463 121.10841166 3.53343201 123.51731873 C0.27295747 124.64367234 -2.94405607 125.44566831 -6.31640625 126.171875 C-7.52441391 126.46942688 -8.73242157 126.76697876 -9.97703552 127.07354736 C-13.17654983 127.85135612 -16.38210453 128.58662098 -19.59570312 129.3034668 C-22.22005795 129.89928916 -24.83352645 130.5364483 -27.44752598 131.17594528 C-32.84592786 132.49527431 -38.25239748 133.78275113 -43.67407227 135.00292969 C-45.11158592 135.32955597 -45.11158592 135.32955597 -46.57814026 135.66278076 C-49 136 -49 136 -52 135 C-53.68711423 133.3540349 -55.3545622 131.68762851 -57 130 C-60.71013678 128.14493161 -64.95092823 128.54665301 -69 129 C-72.27060012 130.63530006 -74.22381741 131.9415692 -76.375 134.875 C-77.18287126 137.62176229 -77.0388243 140.15029647 -77 143 C-84.50789796 144.98282104 -92.01808947 146.95667845 -99.53134632 148.9190836 C-103.01987835 149.83056288 -106.50754093 150.74512541 -109.9934082 151.66674805 C-113.3566659 152.55583286 -116.72195368 153.43679977 -120.08881187 154.31214714 C-121.99971973 154.81123194 -123.90842425 155.31872821 -125.8170929 155.8263092 C-126.97806992 156.12669601 -128.13904694 156.42708282 -129.33520508 156.73657227 C-130.35890701 157.00526627 -131.38260895 157.27396027 -132.43733215 157.55079651 C-135 158 -135 158 -138 157 C-133.06694861 150.75401762 -127.95425815 144.7906266 -122.5 139 C-118.67786498 134.94128015 -114.98562268 130.85702835 -111.5 126.5 C-107.49652544 121.4956568 -103.18663292 116.85300698 -98.796875 112.19140625 C-95.55421929 108.72903789 -92.46555917 105.20694897 -89.5 101.5 C-85.49652544 96.4956568 -81.18663292 91.85300698 -76.796875 87.19140625 C-73.55421929 83.72903789 -70.46555917 80.20694897 -67.5 76.5 C-63.49652544 71.4956568 -59.18663292 66.85300698 -54.796875 62.19140625 C-51.55421929 58.72903789 -48.46555917 55.20694897 -45.5 51.5 C-41.49652544 46.4956568 -37.18663292 41.85300698 -32.796875 37.19140625 C-29.55421929 33.72903789 -26.46555917 30.20694897 -23.5 26.5 C-19.45920142 21.45086905 -15.12844024 16.73218249 -10.69140625 12.03320312 C-7.41385066 8.55688488 -4.2931886 5.00821739 -1.28588867 1.29394531 C-0.86154541 0.86694336 -0.43720215 0.43994141 0 0 Z M-34 55 C-37.72151732 60.18354198 -38.52848269 64.65820769 -38 71 C-36.65632296 74.7873591 -34.89640648 77.97553546 -32.25 81 C-28.83436735 82.51805896 -25.62451253 82.63537271 -22 82 C-18.13776044 79.85431135 -16.00986736 77.22621898 -14.44140625 73.05859375 C-13.25661807 67.53307721 -14.22048586 62.53118849 -16.75 57.5625 C-19.69236962 54.21146794 -22.03538777 52.29469184 -26.5 51.625 C-29.67951344 52.10192702 -31.44434282 53.04963004 -34 55 Z M-61 99 C-63.47342266 102.71013399 -63.38503486 104.61060262 -63 109 C-61.98009206 111.50098982 -61.98009206 111.50098982 -60 113 C-57.45741537 113.50014953 -57.45741537 113.50014953 -55 113 C-52.57973773 111.01172329 -52.57973773 111.01172329 -52.6875 107.125 C-52.76685803 104.39706775 -52.99491048 103.01071478 -54.1875 100.5 C-55.94726127 98.78975697 -55.94726127 98.78975697 -58.5625 98.5625 C-59.366875 98.706875 -60.17125 98.85125 -61 99 Z M-16 101 C-17.7089129 102.5787681 -17.7089129 102.5787681 -19 105 C-18.92630834 109.12673287 -18.62661572 111.25945415 -15.9375 114.4375 C-15.298125 114.953125 -14.65875 115.46875 -14 116 C-12.35 115.34 -10.7 114.68 -9 114 C-8.1822764 110.20873606 -7.69268262 107.78536663 -9.125 104.125 C-11.36123646 101.59059868 -12.68682445 101.26863586 -16 101 Z " fill="#FFFFFF" transform="translate(227,61)"/>
<path d="M0 0 C2.375 0.25 2.375 0.25 5 1 C7.00621338 3.9893908 7.19760715 6.10303844 6.75 9.625 C6.61851562 10.78902344 6.61851562 10.78902344 6.484375 11.9765625 C6 14 6 14 4 16 C1.5 15.8125 1.5 15.8125 -1 15 C-3.48386059 11.27420911 -3.3804212 9.41288598 -3 5 C-1.5 2.0625 -1.5 2.0625 0 0 Z " fill="#FFFFFF" transform="translate(199,120)"/>
<path d="M0 0 C0.33 0.33 0.66 0.66 1 1 C0.69947011 6.20918474 -0.10483777 9.42066174 -4 13 C-7.125 13.9375 -7.125 13.9375 -10 14 C-10.66 13.34 -11.32 12.68 -12 12 C-11.78370544 7.13337243 -10.3105135 4.51115068 -7 1 C-4.51588385 -0.24205807 -2.74800896 -0.14092354 0 0 Z " fill="#FFFFFF" transform="translate(61,159)"/>
<path d="M0 0 C0.99467334 3.16486971 1.20298932 4.55128676 -0.1875 7.625 C-2.01236129 10.01619755 -3.37756926 11.534524 -6 13 C-8.75 13.1875 -8.75 13.1875 -11 13 C-12.07112188 9.68925963 -12.07226864 8.20074623 -10.875 4.875 C-8.08283455 0.59367965 -5.12594656 -2.0883486 0 0 Z " fill="#FFFFFF" transform="translate(145,113)"/>
<path d="M0 0 C0.33 0.33 0.66 0.66 1 1 C0.93699672 4.27617057 0.84639895 6.91714673 -1.23046875 9.57421875 C-3.71387362 11.80226065 -5.54426649 12.95046375 -8.875 13.3125 C-9.926875 13.1578125 -9.926875 13.1578125 -11 13 C-11.91357145 10.48767852 -12.27102341 8.72169661 -11.31640625 6.1796875 C-9.82784867 3.41108624 -8.53098928 1.39824196 -6 -0.5 C-3.61663175 -1.09584206 -2.28213641 -0.86563795 0 0 Z " fill="#FFFFFF" transform="translate(150,68)"/>
</svg>
