<?xml version="1.0" encoding="UTF-8"?>
<svg version="1.1" xmlns="http://www.w3.org/2000/svg" width="100" height="100">
<path d="M0 0 C1.24725861 -0.01051392 1.24725861 -0.01051392 2.51971436 -0.02124023 C5.26088117 -0.03880655 8.00101068 -0.02720259 10.7421875 -0.01367188 C12.65120644 -0.01636719 14.56022404 -0.02024994 16.46923828 -0.02526855 C20.46725555 -0.03116175 24.46491499 -0.02260639 28.46289062 -0.00390625 C33.58440636 0.01888317 38.70508362 0.00575914 43.8265686 -0.01819611 C47.76772363 -0.0326589 51.70868027 -0.02804588 55.64984131 -0.01768494 C57.5380666 -0.01501898 59.42630998 -0.01828279 61.31451416 -0.02760315 C63.9549522 -0.0377767 66.59403756 -0.02225704 69.234375 0 C70.01270691 -0.00809692 70.79103882 -0.01619385 71.59295654 -0.02453613 C75.27335703 0.03285963 77.44509465 0.41157697 80.60595703 2.35852051 C82.6171875 4.51757812 82.6171875 4.51757812 83.1796875 7.58007812 C82.6171875 10.51757812 82.6171875 10.51757812 80.7421875 11.89257812 C77.41210547 14.43911144 77.41102385 17.48224336 76.6171875 21.51757812 C80.5771875 21.02257813 80.5771875 21.02257813 84.6171875 20.51757812 C84.1221875 22.99257813 84.1221875 22.99257813 83.6171875 25.51757812 C81.3071875 26.17757812 78.9971875 26.83757813 76.6171875 27.51757812 C76.64337158 28.11183594 76.66955566 28.70609375 76.6965332 29.31835938 C76.80145685 32.05115554 76.86580779 34.7835267 76.9296875 37.51757812 C76.97158203 38.45214844 77.01347656 39.38671875 77.05664062 40.34960938 C77.1946493 48.24370576 75.03089808 52.77117541 69.7734375 58.54101562 C69.226875 58.98703125 68.6803125 59.43304688 68.1171875 59.89257812 C67.570625 60.3540625 67.0240625 60.81554687 66.4609375 61.29101562 C62.64891334 63.82698085 59.13285394 64.767475 54.58666992 64.80810547 C53.61183151 64.82086517 52.6369931 64.83362488 51.63261414 64.84677124 C50.58982803 64.84899689 49.54704193 64.85122253 48.47265625 64.85351562 C46.84702507 64.86350082 46.84702507 64.86350082 45.18855286 64.87368774 C42.89809869 64.88380094 40.60761514 64.88850518 38.31713867 64.88818359 C34.82746339 64.89254963 31.33906046 64.92886538 27.84960938 64.96679688 C25.61979597 64.97266683 23.38997659 64.97663503 21.16015625 64.97851562 C20.12344284 64.99288666 19.08672943 65.00725769 18.01860046 65.02206421 C10.5100253 64.97512481 5.0442204 63.57444371 -0.625 58.51757812 C-1.16382813 57.85757813 -1.70265625 57.19757813 -2.2578125 56.51757812 C-2.81210938 55.85757813 -3.36640625 55.19757813 -3.9375 54.51757812 C-6.62491613 50.79877527 -7.6344589 48.15258269 -7.578125 43.53320312 C-7.57167969 42.59863281 -7.56523438 41.6640625 -7.55859375 40.70117188 C-7.54183594 39.73308594 -7.52507813 38.765 -7.5078125 37.76757812 C-7.49878906 36.78402344 -7.48976563 35.80046875 -7.48046875 34.78710938 C-7.45694035 32.36368405 -7.42406618 29.94075591 -7.3828125 27.51757812 C-9.6928125 26.85757813 -12.0028125 26.19757812 -14.3828125 25.51757812 C-14.7128125 23.86757813 -15.0428125 22.21757813 -15.3828125 20.51757812 C-12.7428125 20.84757812 -10.1028125 21.17757812 -7.3828125 21.51757812 C-7.80704494 20.05533013 -8.24771495 18.59784401 -8.6953125 17.14257812 C-9.06076172 15.92441406 -9.06076172 15.92441406 -9.43359375 14.68164062 C-10.29649435 12.18573183 -10.29649435 12.18573183 -13.3828125 10.51757812 C-13.8828125 7.64257812 -13.8828125 7.64257812 -13.3828125 4.51757812 C-9.37156796 0.19531821 -5.604531 -0.05830348 0 0 Z " fill="#FFFFFF" transform="translate(15.3828125,35.482421875)"/>
<path d="M0 0 C4.09939217 1.86336008 5.87642305 3.73508969 8.0625 7.5 C11.09630796 12.17046751 15.78046051 12.81324581 20.94140625 14.078125 C24 15 24 15 28 18 C5.56 18 -16.88 18 -40 18 C-36.10289974 15.0771748 -34.20030149 14.40566644 -29.625 13.3125 C-23.94150409 11.67229648 -21.26212123 10.03907148 -18.34375 4.90234375 C-13.92733454 -1.34996535 -6.87959142 -0.82255984 0 0 Z M-15 8 C-15 8.66 -15 9.32 -15 10 C-9.06 10 -3.12 10 3 10 C-1.12042248 5.0730881 -1.12042248 5.0730881 -4.0625 4.40625 C-8.44017442 4.61807296 -11.46702713 5.12945954 -15 8 Z " fill="#FFFFFF" transform="translate(56,14)"/>
</svg>
