<?xml version="1.0" encoding="UTF-8"?>
<svg version="1.1" xmlns="http://www.w3.org/2000/svg" width="256" height="256">
<path d="M0 0 C2.80175781 -0.37752342 2.80175781 -0.37752342 6.453125 -0.38095093 C7.12312531 -0.3856309 7.79312561 -0.39031087 8.48342896 -0.39513266 C10.73915119 -0.40714414 12.99427275 -0.397602 15.25 -0.38818359 C16.86279659 -0.39224659 18.4755904 -0.39758693 20.08837891 -0.40411377 C24.47675358 -0.41782569 28.86491739 -0.41247283 33.2532959 -0.40297651 C37.8381407 -0.39539992 42.42296702 -0.40241994 47.0078125 -0.40713501 C54.70836643 -0.41259842 62.40883415 -0.40538564 70.109375 -0.39111328 C79.02195139 -0.37478563 87.93432192 -0.38007373 96.84689331 -0.3965925 C104.48853319 -0.41019074 112.13011097 -0.41213518 119.77175903 -0.40427649 C124.34038672 -0.3995908 128.90891754 -0.3989996 133.47753906 -0.40888596 C137.77196933 -0.41752924 142.06613328 -0.41158233 146.36053467 -0.39420319 C147.93999793 -0.39022417 149.51948348 -0.39139644 151.09893799 -0.39799118 C153.24855661 -0.40614146 155.39731198 -0.39596569 157.546875 -0.38095093 C158.75182617 -0.37981985 159.95677734 -0.37868877 161.19824219 -0.37752342 C162.12282227 -0.25294069 163.04740234 -0.12835796 164 0 C166.71291318 4.06936977 166.51728425 7.22506846 166 12 C164.41246333 16.76261 162.30585434 20.23816575 159 24 C160.2065625 25.4540625 160.2065625 25.4540625 161.4375 26.9375 C176.94976433 47.81656668 183.77704286 74.22323043 180 100 C175.71377534 125.07498271 162.79330628 148.88981535 142.18945312 164.359375 C136.38604357 168.40288386 130.33742663 171.86335532 124 175 C124.58659897 175.01030746 125.17319794 175.02061493 125.77757263 175.03123474 C131.8603787 175.13907194 137.94302974 175.25368756 144.02563477 175.37231445 C146.29838836 175.41573665 148.57117613 175.45740616 150.84399414 175.49731445 C154.10313232 175.55484119 157.36209731 175.61858552 160.62109375 175.68359375 C161.64400009 175.70030624 162.66690643 175.71701874 163.72080994 175.73423767 C164.66170975 175.75418289 165.60260956 175.77412811 166.57202148 175.79467773 C167.40475082 175.81022202 168.23748016 175.8257663 169.09544373 175.84178162 C171 176 171 176 172 177 C172.1875 179.4375 172.1875 179.4375 172 182 C170 184 170 184 166.99242306 184.24888897 C165.6903066 184.2483442 164.38819014 184.24779943 163.0466156 184.24723816 C161.96092752 184.25085978 161.96092752 184.25085978 160.85330635 184.25455457 C158.41570435 184.26021317 155.97836192 184.25151234 153.54077148 184.24291992 C151.79827808 184.24399226 150.05578503 184.24593022 148.31329346 184.24867249 C143.5717254 184.25353133 138.83025106 184.2458525 134.08869433 184.23571944 C129.13636549 184.22695709 124.18403973 184.22869603 119.23170471 184.2290802 C110.91495183 184.22814281 102.59823538 184.21944834 94.28149414 184.20581055 C84.65209583 184.19007908 75.02273741 184.18481258 65.39332718 184.1855461 C56.14661759 184.18615546 46.89992107 184.18105878 37.65321541 184.17275429 C33.7102352 184.16921447 29.7672596 184.16739005 25.82427788 184.16686058 C21.18602908 184.16585946 16.54781408 184.15978185 11.90957642 184.14969444 C10.20229868 184.14676215 8.49501705 184.14554554 6.78773689 184.14612198 C4.46725504 184.14660917 2.14686928 184.1409918 -0.17359924 184.13371277 C-1.47533868 184.13203692 -2.77707811 184.13036108 -4.1182642 184.12863445 C-7 184 -7 184 -8 183 C-8.125 180 -8.125 180 -8 177 C-6.42926468 175.42926468 -4.84637782 175.83630693 -2.66381836 175.79467773 C-1.7429393 175.77473251 -0.82206024 175.75478729 0.12672424 175.73423767 C1.12775681 175.71752518 2.12878937 175.70081268 3.16015625 175.68359375 C4.17975937 175.66281265 5.19936249 175.64203156 6.24986267 175.62062073 C9.52067048 175.55501148 12.79156137 175.49618766 16.0625 175.4375 C18.27409728 175.39432558 20.48568603 175.35071166 22.69726562 175.30664062 C28.13142151 175.1993186 33.56566082 175.09757377 39 175 C37.92419678 174.43406128 37.92419678 174.43406128 36.82666016 173.85668945 C13.09638906 161.17999057 -3.61281633 141.81419129 -12.24609375 116.3203125 C-19.73058322 90.38504864 -17.62028156 64.37222949 -6 40 C-3.84029574 36.20060703 -1.49383304 32.58677198 1 29 C1.81455569 27.77219465 2.62746624 26.54329334 3.4375 25.3125 C3.953125 24.549375 4.46875 23.78625 5 23 C4.21625 22.278125 3.4325 21.55625 2.625 20.8125 C-2.00529939 15.85146494 -2.22576634 11.86143655 -2.265625 5.3046875 C-2 3 -2 3 0 0 Z M7 8 C7.33 9.98 7.66 11.96 8 14 C11.20822874 16.09232309 13.15947088 17 17 17 C17.31043336 20.56480977 17.34120269 22.46417927 15.390625 25.52734375 C14.68421875 26.32269531 13.9778125 27.11804688 13.25 27.9375 C9.94567223 31.81012528 7.35051125 35.49485344 5 40 C6.84452738 41.01767028 8.70117683 42.01338453 10.5625 43 C11.59503906 43.556875 12.62757812 44.11375 13.69140625 44.6875 C19.57141065 47.02006373 24.10865279 46.27739662 29.75195312 43.91601562 C30.39068359 43.63435547 31.02941406 43.35269531 31.6875 43.0625 C42.36601205 38.50111378 51.74913944 37.01256584 62.9375 41.375 C64.95879413 42.24893501 66.979646 43.1238938 69 44 C80.74362732 48.49657309 90.89921536 45.87135496 102 41 C114.8085585 36.14675713 125.63852241 40.09377194 137.71484375 45.1328125 C142.27847095 46.86465051 145.63367401 46.58899266 150.1171875 44.65625 C153.11350211 43.16161777 156.06839047 41.61743974 159 40 C154.46935717 32.46745718 154.46935717 32.46745718 149 25.625 C147 23 147 23 146.6875 20.375 C148.48714876 17.11849272 150.75870879 16.5036017 154.1875 15.28515625 C154.785625 14.86105469 155.38375 14.43695313 156 14 C156.33 12.02 156.66 10.04 157 8 C107.5 8 58 8 7 8 Z M33.875 50.5 C25.78647654 53.84640056 20.07096296 56.0225898 11.58203125 52.63671875 C9.26144211 51.57638412 6.96086352 50.47062858 4.6875 49.3125 C2.19895608 47.85372157 2.19895608 47.85372157 0 48 C-9.46961067 74.26476922 -10.8539154 98.97018729 0.88330078 124.95556641 C11.91304572 147.52265147 31.53899237 163.56458153 55 172 C59.30189208 173.28354822 63.57571695 174.24598685 68 175 C68.90492187 175.1546875 69.80984375 175.309375 70.7421875 175.46875 C93.33062905 178.28430645 116.78251754 172.01040761 135.13671875 158.73046875 C137.84099751 156.56483214 140.43609567 154.32927082 143 152 C143.62003906 151.46117187 144.24007812 150.92234375 144.87890625 150.3671875 C161.5445516 134.97756604 170.81173587 111.80375862 172.22265625 89.4765625 C172.57795964 74.739196 169.38093477 61.6118508 164 48 C159.70843445 49.3721332 155.56626418 50.72697977 151.5 52.6875 C141.33064639 56.50100761 132.87100863 52.04212596 123.44140625 47.8671875 C113.99558831 44.51203297 105.21254975 47.97186967 96.46875 51.58984375 C86.27972645 55.7320031 75.14666538 55.02832728 65 51 C64.20335938 50.64035156 63.40671875 50.28070313 62.5859375 49.91015625 C52.11330085 45.23902784 44.23540614 46.20013818 33.875 50.5 Z " fill="#FFFFFF" transform="translate(46,36)"/>
<path d="M0 0 C5.01875371 0.22525825 7.76586801 3.1089161 11.1875 6.4375 C11.98704102 7.19256836 11.98704102 7.19256836 12.80273438 7.96289062 C14.89736002 9.9468568 16.95998097 11.95998097 19 14 C21.27797618 14.50395125 23.57368942 14.92894824 25.875 15.3125 C40.76927707 18.07618414 52.68268599 24.72664132 62.85546875 36.04296875 C64.37305309 38.63788258 64.48240187 40.03345393 64 43 C57.30658249 53.20180301 46.48811145 59.52500496 35 63 C32.52562417 63.48352978 30.04589412 63.94015467 27.5625 64.375 C21.35088007 65.49811108 16.74441391 67.36500139 11.46484375 70.79296875 C8.4450451 72.2717608 6.32385535 72.28121384 3 72 C2.01 71.505 2.01 71.505 1 71 C0.875 65.25 0.875 65.25 2 63 C0.9275 62.938125 -0.145 62.87625 -1.25 62.8125 C-10.31952558 61.67076894 -18.5269646 57.02992767 -26 52 C-26.94101563 52.5775 -27.88203125 53.155 -28.8515625 53.75 C-30.10896461 54.50068783 -31.36680033 55.25064969 -32.625 56 C-33.55119141 56.57234375 -33.55119141 56.57234375 -34.49609375 57.15625 C-38.4484188 59.48604161 -41.27880229 60.66456742 -46 60 C-48.66070205 57.33929795 -48.24916545 55.34520322 -48.27789307 51.72607422 C-48.2738446 50.86771973 -48.26979614 50.00936523 -48.265625 49.125 C-48.26753845 48.24473145 -48.2694519 47.36446289 -48.27142334 46.45751953 C-48.27278552 44.59472366 -48.26908682 42.73191831 -48.26074219 40.86914062 C-48.25004307 38.01150264 -48.26063632 35.15449334 -48.2734375 32.296875 C-48.27211591 30.48958194 -48.26955353 28.68228927 -48.265625 26.875 C-48.26967346 26.01664551 -48.27372192 25.15829102 -48.27789307 24.27392578 C-48.22991745 18.22991745 -48.22991745 18.22991745 -46 16 C-39.56593637 15.01662783 -36.03270074 18.3002381 -31.12304688 21.88867188 C-27.57685823 24.37922952 -27.57685823 24.37922952 -23.38671875 24.9375 C-20.78113008 23.91402818 -18.34209619 22.76158373 -15.875 21.4375 C-11.33144476 19 -11.33144476 19 -8 19 C-7.82984375 18.3709375 -7.6596875 17.741875 -7.484375 17.09375 C-3.68907563 3.68907563 -3.68907563 3.68907563 0 0 Z M3 13 C3.33 13.99 3.66 14.98 4 16 C4.66 15.34 5.32 14.68 6 14 C5.01 13.67 4.02 13.34 3 13 Z M-20.12109375 34.08203125 C-22.91574661 35.44740219 -24.92721663 35.3517274 -28 35 C-30.703125 33.46875 -30.703125 33.46875 -33.25 31.5 C-36.30325001 28.8509576 -36.30325001 28.8509576 -40 28 C-40 34.93 -40 41.86 -40 49 C-35.60688131 46.62601765 -35.60688131 46.62601765 -31.2355957 44.21240234 C-28.3422558 42.70724508 -26.59436704 41.86987231 -23.359375 42.578125 C-20.82605304 44.10482896 -18.37138079 45.69367662 -15.9375 47.375 C-4.30232265 54.91195699 7.44123017 56.20037591 21 56 C20.505 54.824375 20.01 53.64875 19.5 52.4375 C16.47499546 43.37682289 17.05702472 33.01286181 20 24 C6.48360496 21.15227097 -9.24532522 25.8810457 -20.12109375 34.08203125 Z M30 26 C26.23066563 29.99861261 25.44979569 34.66670823 25 40 C25.50297898 45.10164392 27.54702622 49.54004767 30 54 C38.88958691 53.42024433 46.67098307 49.16673444 53 43 C53.33 42.01 53.66 41.02 54 40 C47.5189834 33.54710061 39.73781437 26 30 26 Z " fill="#FFFFFF" transform="translate(115,104)"/>
<path d="M0 0 C2.375 -0.125 2.375 -0.125 5 0 C5.66 0.66 6.32 1.32 7 2 C6.44444444 6.55555556 6.44444444 6.55555556 5 8 C3.33382885 8.04063832 1.66611905 8.042721 0 8 C-1.125 6.25 -1.125 6.25 -2 4 C-1.125 1.75 -1.125 1.75 0 0 Z " fill="#FFFFFF" transform="translate(151,139)"/>
</svg>
