<?xml version="1.0" encoding="UTF-8"?>
<svg version="1.1" xmlns="http://www.w3.org/2000/svg" width="100" height="100">
<path d="M0 0 C33 0 66 0 100 0 C100 14.90829951 99.88068756 22.7187925 90.5 33.3125 C78.86737526 43.4739566 67.88288365 45.14207251 52.9140625 44.91259766 C50.0026157 44.87503375 47.09871884 44.91240172 44.1875 44.95703125 C30.28275202 44.9924965 20.23512978 42.68996707 9.5 33.3125 C0.11931244 22.7187925 0 14.90829951 0 0 Z " fill="#FFFFFF" transform="translate(0,56)"/>
<path d="M0 0 C0.495 2.475 0.495 2.475 1 5 C-2.63689799 7.42459866 -5.80357487 7.64202079 -10.03515625 8.0703125 C-11.22509438 8.19924393 -11.22509438 8.19924393 -12.43907166 8.33078003 C-14.12066286 8.51110849 -15.80269488 8.6873658 -17.48510742 8.85986328 C-20.02968439 9.12162425 -22.57240516 9.39760912 -25.11523438 9.67578125 C-33.10758372 10.53055589 -40.94990125 11.24718829 -49 11 C-49 9.35 -49 7.7 -49 6 C-41.69276117 4.81741506 -34.38389597 3.6455263 -27.07275391 2.48730469 C-25.24922158 2.19811269 -23.42589506 1.90760992 -21.60302734 1.61425781 C-14.34336636 0.4506154 -7.35803223 -0.30517184 0 0 Z " fill="#FFFFFF" transform="translate(97,4)"/>
<path d="M0 0 C16.5 0 33 0 50 0 C50 1.98 50 3.96 50 6 C33.30485685 6.10413437 16.66382959 6.18875727 0 5 C0 3.35 0 1.7 0 0 Z " fill="#FFFFFF" transform="translate(48,22)"/>
<path d="M0 0 C0.99 0.33 1.98 0.66 3 1 C3 15.19 3 29.38 3 44 C1.68 44 0.36 44 -1 44 C-1 34.76 -1 25.52 -1 16 C-4.63 16 -8.26 16 -12 16 C-12.33 14.68 -12.66 13.36 -13 12 C-9.04 12 -5.08 12 -1 12 C-1 11.01 -1 10.02 -1 9 C-6.94 9.495 -6.94 9.495 -13 10 C-13 8.68 -13 7.36 -13 6 C-12.22914062 5.90203125 -11.45828125 5.8040625 -10.6640625 5.703125 C-9.66117188 5.55359375 -8.65828125 5.4040625 -7.625 5.25 C-6.62726562 5.11078125 -5.62953125 4.9715625 -4.6015625 4.828125 C-1.85438953 4.25613111 -1.85438953 4.25613111 -0.6484375 1.921875 C-0.43445312 1.28765625 -0.22046875 0.6534375 0 0 Z " fill="#FFFFFF" transform="translate(19,10)"/>
<path d="M0 0 C1.65 0.33 3.3 0.66 5 1 C5 8.59 5 16.18 5 24 C3.35 24.33 1.7 24.66 0 25 C0 24.01 0 23.02 0 22 C-0.66 22 -1.32 22 -2 22 C-2 20.35 -2 18.7 -2 17 C-1.34 17 -0.68 17 0 17 C0 15.02 0 13.04 0 11 C-0.66 11 -1.32 11 -2 11 C-2 9.35 -2 7.7 -2 6 C-1.34 6 -0.68 6 0 6 C0 4.02 0 2.04 0 0 Z " fill="#FFFFFF" transform="translate(42,5)"/>
<path d="M0 0 C0.99 0.33 1.98 0.66 3 1 C3 8.92 3 16.84 3 25 C1.68 25 0.36 25 -1 25 C-1 23.68 -1 22.36 -1 21 C-1.66 21 -2.32 21 -3 21 C-3 19.68 -3 18.36 -3 17 C-2.34 17 -1.68 17 -1 17 C-1 15.35 -1 13.7 -1 12 C-1.66 12 -2.32 12 -3 12 C-3 10.35 -3 8.7 -3 7 C-2.34 7 -1.68 7 -1 7 C-1.020625 6.030625 -1.04125 5.06125 -1.0625 4.0625 C-1 1 -1 1 0 0 Z " fill="#FFFFFF" transform="translate(35,5)"/>
<path d="M0 0 C0.99 0.33 1.98 0.66 3 1 C3 8.26 3 15.52 3 23 C1.68 23 0.36 23 -1 23 C-1 21.68 -1 20.36 -1 19 C-1.66 19 -2.32 19 -3 19 C-3 17.68 -3 16.36 -3 15 C-2.34 15 -1.68 15 -1 15 C-1 13.68 -1 12.36 -1 11 C-1.66 11 -2.32 11 -3 11 C-3 9.35 -3 7.7 -3 6 C-2.34 6 -1.68 6 -1 6 C-1.0309375 4.7934375 -1.0309375 4.7934375 -1.0625 3.5625 C-1 1 -1 1 0 0 Z " fill="#FFFFFF" transform="translate(27,7)"/>
</svg>
