<?xml version="1.0" encoding="UTF-8"?>
<svg version="1.1" xmlns="http://www.w3.org/2000/svg" width="100" height="100">
<path d="M0 0 C3.02630354 2.09513322 4.42071333 3.29975602 5.6015625 6.765625 C6.12265255 9.68781624 6.07903234 12.53180281 6.125 15.5 C6.38065579 22.24070657 8.1740059 27.91150141 10.5625 34.1875 C16.06166512 48.88431011 16.06166512 48.88431011 14 56 C11.0587465 60.35614221 7.18869773 62.28175589 2.16577148 63.61621094 C-2.4976605 64.442602 -7.21573842 64.32699282 -11.9375 64.3125 C-12.98357422 64.32861328 -14.02964844 64.34472656 -15.10742188 64.36132812 C-22.36879779 64.36589216 -28.52196464 63.95901464 -34.27734375 59.0625 C-34.82519531 58.381875 -35.37304688 57.70125 -35.9375 57 C-36.50339844 56.319375 -37.06929687 55.63875 -37.65234375 54.9375 C-41.43989254 49.49221247 -40.55947694 42.30858481 -40 36 C-36.39977389 21.84126322 -27.88044595 9.66033446 -16.25 0.9375 C-10.85685072 -0.61821614 -5.55257544 -0.77779267 0 0 Z M-18 22 C-20.31503104 25.26208919 -20.17874634 28.06758042 -20 32 C-19.34 32 -18.68 32 -18 32 C-17.75765625 31.39671875 -17.5153125 30.7934375 -17.265625 30.171875 C-15.36035347 25.6285352 -13.73422854 22.33413263 -10 19 C-10 18.34 -10 17.68 -10 17 C-13.44338211 17 -15.6414794 19.71394791 -18 22 Z M-3 33 C-3.33 37.95 -3.66 42.9 -4 48 C-7.63 49.32 -11.26 50.64 -15 52 C-15 52.33 -15 52.66 -15 53 C-13.10448978 53.05441656 -11.2085208 53.09298035 -9.3125 53.125 C-8.25675781 53.14820312 -7.20101562 53.17140625 -6.11328125 53.1953125 C-2.97748141 52.99858729 -0.82354627 52.33057654 2 51 C2.51137226 44.09647445 0.86964374 39.25172386 -2 33 C-2.33 33 -2.66 33 -3 33 Z " fill="#FFFFFF" transform="translate(68,36)"/>
<path d="M0 0 C0.78890625 0.54269531 1.5778125 1.08539063 2.390625 1.64453125 C4.52500859 3.11913072 6.64523585 4.60846915 8.75 6.125 C9.4934668 6.63820801 10.23693359 7.15141602 11.00292969 7.68017578 C11.57946289 8.15696777 12.15599609 8.63375977 12.75 9.125 C12.75 9.785 12.75 10.445 12.75 11.125 C12.13253906 11.19976562 11.51507813 11.27453125 10.87890625 11.3515625 C1.26780236 12.84369735 -5.42555571 17.31981973 -11.55859375 24.8046875 C-20.40243023 36.93687889 -25.5350391 48.95732537 -24.25 64.125 C-23.95630173 65.46762065 -23.63968691 66.80703452 -23.25 68.125 C-34.50954626 63.02263481 -41.45357245 49.92687197 -46.25 39.125 C-49.00275849 30.86672453 -45.9562925 24.62203217 -42.25 17.125 C-37.00384 7.4527993 -29.92614586 -2.28487068 -19.4375 -6.625 C-11.32357347 -7.55230589 -6.38998419 -4.54753875 0 0 Z " fill="#FFFFFF" transform="translate(50.25,21.875)"/>
<path d="M0 0 C3.85186407 2.47100714 5.69244542 3.83568624 6.875 8.3125 C6.91625 9.199375 6.9575 10.08625 7 11 C3.55167456 13.79746183 0.0376692 16.46376868 -3.5625 19.0625 C-6.72812298 21.35000287 -9.88339821 23.646049 -13 26 C-13.99 25.34 -14.98 24.68 -16 24 C-15.65923223 21.06415458 -15.07418429 20.0703377 -12.890625 18 C-12.01921875 17.34 -11.1478125 16.68 -10.25 16 C-9.38890625 15.34 -8.5278125 14.68 -7.640625 14 C-6.76921875 13.34 -5.8978125 12.68 -5 12 C-3.32973826 10.67117298 -1.66199041 9.33915774 0 8 C-1.32 7.34 -2.64 6.68 -4 6 C-5.58651682 7.55926748 -7.16907315 9.12256518 -8.75 10.6875 C-9.63171875 11.55761719 -10.5134375 12.42773438 -11.421875 13.32421875 C-13.78805298 15.78002468 -15.91892556 18.30141048 -18 21 C-19.32 20.34 -20.64 19.68 -22 19 C-20.55930366 14.54841018 -18.29108316 11.7853507 -15.125 8.375 C-14.26132813 7.43398438 -13.39765625 6.49296875 -12.5078125 5.5234375 C-8.40791989 1.39800039 -6.03031973 -0.96485116 0 0 Z " fill="#FFFFFF" transform="translate(83,9)"/>
<path d="M0 0 C3.64405293 0.35726009 5.40711207 0.92931035 8.1875 3.3125 C9.08984375 6.140625 9.08984375 6.140625 9.1875 9.3125 C7.421875 11.7265625 7.421875 11.7265625 4.9375 13.9375 C2.01793819 16.58742075 -0.5536566 19.07091304 -2.8125 22.3125 C-5.2875 21.3225 -5.2875 21.3225 -7.8125 20.3125 C-4.77298347 14.99334607 -1.21911949 10.56174022 3.1875 6.3125 C1.8675 6.3125 0.5475 6.3125 -0.8125 6.3125 C-3.07313574 8.97284896 -3.07313574 8.97284896 -5.0625 12.3125 C-6.12210938 13.983125 -6.12210938 13.983125 -7.203125 15.6875 C-7.73421875 16.55375 -8.2653125 17.42 -8.8125 18.3125 C-10.1325 17.9825 -11.4525 17.6525 -12.8125 17.3125 C-12.8125 12.54224195 -11.75991944 11.4138972 -8.9375 7.6875 C-8.21820313 6.72585937 -7.49890625 5.76421875 -6.7578125 4.7734375 C-3.27189675 0.36354408 -3.27189675 0.36354408 0 0 Z " fill="#FFFFFF" transform="translate(61.8125,2.6875)"/>
<path d="M0 0 C5.14872263 0.95346715 5.14872263 0.95346715 7.375 3.625 C8 6.5 8 6.5 7.375 9.625 C4.5 12.3125 4.5 12.3125 1.375 14.625 C0.385 16.11 0.385 16.11 -0.625 17.625 C-1.945 16.965 -3.265 16.305 -4.625 15.625 C-4.05147107 11.75367972 -2.13795648 9.54327204 0.375 6.625 C-0.285 6.625 -0.945 6.625 -1.625 6.625 C-2.98777086 8.41465547 -2.98777086 8.41465547 -4.25 10.625 C-4.91902344 11.73875 -4.91902344 11.73875 -5.6015625 12.875 C-5.93929687 13.4525 -6.27703125 14.03 -6.625 14.625 C-8.275 14.295 -9.925 13.965 -11.625 13.625 C-10.02958177 7.08378525 -6.9552119 1.19917447 0 0 Z " fill="#FFFFFF" transform="translate(46.625,-0.625)"/>
</svg>
