<?xml version="1.0" encoding="UTF-8"?>
<svg version="1.1" xmlns="http://www.w3.org/2000/svg" width="100" height="100">
<path d="M0 0 C8.65150775 6.02647762 8.65150775 6.02647762 10.828125 11.2734375 C11.35594001 15.50967696 11.33660018 19.75782537 11.390625 24.0234375 C11.44025391 25.1784375 11.48988281 26.3334375 11.54101562 27.5234375 C11.61165757 33.41699443 11.44155489 37.36166979 7.5234375 41.95703125 C-4.5491135 53.91483645 -24.05521827 53.45305513 -39.859375 53.4609375 C-41.76879883 53.47930664 -41.76879883 53.47930664 -43.71679688 53.49804688 C-56.85209356 53.51808037 -69.8383924 53.09364757 -80.87890625 45.3828125 C-84.39408449 40.61606313 -83.90057596 36.10516768 -83.796875 30.3359375 C-83.82587891 28.7281543 -83.82587891 28.7281543 -83.85546875 27.08789062 C-83.80127279 18.33524305 -83.80127279 18.33524305 -81.0703125 14.70703125 C-73.16622797 8.07058292 -65.92311678 9.03508836 -56.06445312 9.47851562 C-46.19219155 9.73292337 -40.69462596 6.82661748 -33.2265625 0.640625 C-24.71794783 -5.02100073 -8.84946695 -4.91249937 0 0 Z M-33.7109375 7.54296875 C-34.52304687 8.11402344 -35.33515625 8.68507813 -36.171875 9.2734375 C-36.77588135 9.7063208 -37.3798877 10.1392041 -38.00219727 10.58520508 C-44.60593606 14.83448267 -50.18097102 14.75822702 -57.859375 14.3359375 C-66.1809464 13.53423305 -66.1809464 13.53423305 -73.81640625 16.14453125 C-77.30764441 19.02636902 -77.30764441 19.02636902 -78.609375 23.1484375 C-78.44755791 26.34968165 -78.44755791 26.34968165 -76.296875 28.4609375 C-68.81318646 32.80147685 -60.42915738 33.90968517 -51.921875 34.5859375 C-50.88627441 34.66859863 -49.85067383 34.75125977 -48.78369141 34.83642578 C-31.96567725 35.9583082 -10.17598508 35.87383513 3.47265625 24.640625 C5.87905566 22.21342098 5.84533413 21.01099833 6.078125 17.4609375 C5.99328407 13.54411467 5.46194661 11.31879373 2.828125 8.2734375 C-7.88837444 -0.76204242 -22.69370209 -0.84362065 -33.7109375 7.54296875 Z " fill="#FFFFFF" transform="translate(85.171875,32.7265625)"/>
<path d="M0 0 C2.38404615 1.49574097 4.20451218 3.16707321 6.19824219 5.15429688 C6.95234375 5.90582031 7.70644531 6.65734375 8.48339844 7.43164062 C9.26070312 8.21667969 10.03800781 9.00171875 10.83886719 9.81054688 C11.63164063 10.59558594 12.42441406 11.380625 13.24121094 12.18945312 C13.99015625 12.94097656 14.73910156 13.6925 15.51074219 14.46679688 C16.54086426 15.50030273 16.54086426 15.50030273 17.59179688 16.5546875 C19.08886719 18.31054688 19.08886719 18.31054688 19.08886719 20.31054688 C15.27011727 21.73147708 12.16714655 22.74725382 8.08886719 22.31054688 C6.03662109 20.90527344 6.03662109 20.90527344 4.06542969 18.95117188 C3.35515625 18.24734375 2.64488281 17.54351562 1.91308594 16.81835938 C1.18734375 16.07328125 0.46160156 15.32820313 -0.28613281 14.56054688 C-1.03507812 13.8309375 -1.78402344 13.10132813 -2.55566406 12.34960938 C-3.25820313 11.640625 -3.96074219 10.93164062 -4.68457031 10.20117188 C-5.3282959 9.55180664 -5.97202148 8.90244141 -6.63525391 8.23339844 C-7.91113281 6.31054688 -7.91113281 6.31054688 -7.75732422 4.18457031 C-6.30554883 0.96938627 -3.51898582 -1.26949616 0 0 Z " fill="#FFFFFF" transform="translate(59.9111328125,39.689453125)"/>
<path d="M0 0 C9.48867196 -0.47976431 16.65660579 -0.67546994 24 5.75 C25.51466276 9.15799121 25.71238465 12.34059253 25 16 C23 18.5 23 18.5 21 20 C17.65215892 18.5450489 15.45622627 16.70194509 12.890625 14.12109375 C12.13652344 13.36505859 11.38242188 12.60902344 10.60546875 11.83007812 C9.82816406 11.04052734 9.05085938 10.25097656 8.25 9.4375 C7.45722656 8.64408203 6.66445312 7.85066406 5.84765625 7.03320312 C0 1.14025522 0 1.14025522 0 0 Z " fill="#FFFFFF" transform="translate(63,38)"/>
<path d="M0 0 C1.64746094 1.27514648 1.64746094 1.27514648 3.234375 2.87109375 C3.80800781 3.44537109 4.38164063 4.01964844 4.97265625 4.61132812 C5.55917969 5.21396484 6.14570312 5.81660156 6.75 6.4375 C7.35199219 7.03626953 7.95398438 7.63503906 8.57421875 8.25195312 C13 12.73293119 13 12.73293119 13 15 C9.10333252 16.29888916 5.04010964 16.73712307 1 16 C-1.58468086 14.40625564 -3.48151819 12.37519528 -5.5 10.125 C-6.03625 9.56941406 -6.5725 9.01382813 -7.125 8.44140625 C-11 4.33904656 -11 4.33904656 -11 2 C-3.99146029 -1.36949025 -3.99146029 -1.36949025 0 0 Z " fill="#FFFFFF" transform="translate(51,48)"/>
<path d="M0 0 C6.88520418 -0.48911287 13.17030391 -0.91219857 18.66796875 3.703125 C21.69565099 6.60751593 24.41950236 9.69388757 27 13 C27 13.33 27 13.66 27 14 C21.52325449 14.96068849 15.91129056 15.89149576 11.06103516 12.74023438 C6.92715498 9.23269968 3.3797528 5.2274981 0 1 C0 0.67 0 0.34 0 0 Z " fill="#FFFFFF" transform="translate(21,50)"/>
<path d="M0 0 C2.84837217 1.82667345 5.03436938 4.0352876 7.40625 6.4453125 C8.29828125 7.34378906 9.1903125 8.24226563 10.109375 9.16796875 C12.15625 11.3828125 12.15625 11.3828125 12.15625 12.3828125 C6.08886154 12.77851175 0.81221006 11.63692455 -4.84375 9.3828125 C-6.84375 7.3828125 -6.84375 7.3828125 -7.28125 4.9453125 C-6.84375 2.3828125 -6.84375 2.3828125 -4.59375 0.4453125 C-1.84375 -0.6171875 -1.84375 -0.6171875 0 0 Z " fill="#FFFFFF" transform="translate(16.84375,50.6171875)"/>
</svg>
