<?xml version="1.0" encoding="UTF-8"?>
<svg version="1.1" xmlns="http://www.w3.org/2000/svg" width="100" height="100">
<path d="M0 0 C2.5 0.125 2.5 0.125 3.5 1.125 C3.31377072 7.52157101 0.89534161 10.88793241 -3.0625 15.75 C-7.06963661 20.40277661 -7.06963661 20.40277661 -8.83984375 26.0859375 C-8.67162109 27.09527344 -8.67162109 27.09527344 -8.5 28.125 C-7.778125 28.125 -7.05625 28.125 -6.3125 28.125 C-1.97863196 29.66593086 -0.51298649 33.14548055 1.5 37.125 C1.83 38.115 2.16 39.105 2.5 40.125 C3.82 40.125 5.14 40.125 6.5 40.125 C7.29292 52.51804592 6.48675965 61.08722085 -1.1875 71.390625 C-7.98549102 79.06766658 -17.78769654 84.19581682 -27.99938965 84.96839905 C-31.05940159 85.08571998 -34.10643251 85.09612703 -37.16796875 85.03759766 C-39.50062886 84.99998986 -41.8238715 85.03744166 -44.15625 85.08203125 C-56.70301842 85.12174776 -66.3931173 81.89568214 -76 73.4375 C-84.26201402 64.1071221 -86.25147174 55.50253938 -85.7109375 43.421875 C-85.64132813 42.33390625 -85.57171875 41.2459375 -85.5 40.125 C-83.52 40.125 -81.54 40.125 -79.5 40.125 C-79.62375 39.403125 -79.7475 38.68125 -79.875 37.9375 C-79.44638494 34.72288706 -78.99947518 34.32965124 -76.625 32.3125 C-73.5 30.125 -73.5 30.125 -71.5 30.125 C-71.231875 29.361875 -70.96375 28.59875 -70.6875 27.8125 C-69.46718859 25.0507426 -68.92627994 23.86308046 -66.5 22.125 C-63.1015625 21.76171875 -63.1015625 21.76171875 -59.125 21.8125 C-57.16433594 21.81830078 -57.16433594 21.81830078 -55.1640625 21.82421875 C-51.8003869 22.10034137 -49.51017034 22.66640395 -46.5 24.125 C-46.21125 23.50625 -45.9225 22.8875 -45.625 22.25 C-44.5 20.125 -44.5 20.125 -42.5 18.125 C-38.49081169 17.42870587 -34.18192294 17.08129101 -30.63671875 19.28125 C-30.09660156 19.7453125 -29.55648437 20.209375 -29 20.6875 C-26.75827487 22.60129891 -25.84829817 23.11063719 -22.84765625 23.234375 C-20.3648474 22.96972777 -17.94619471 22.62211401 -15.5 22.125 C-15.27441406 21.47015625 -15.04882812 20.8153125 -14.81640625 20.140625 C-13.06575959 16.13024155 -10.78150664 12.56175443 -8.4375 8.875 C-7.74817383 7.77671875 -7.74817383 7.77671875 -7.04492188 6.65625 C-2.94049369 0.14702468 -2.94049369 0.14702468 0 0 Z " fill="#FFFFFF" transform="translate(89.5,11.875)"/>
</svg>
