<?xml version="1.0" encoding="UTF-8"?>
<svg version="1.1" xmlns="http://www.w3.org/2000/svg" width="100" height="100">
<path d="M0 0 C12.39730632 6.36092157 21.40555902 18.0010938 26 31 C28.35567445 43.08563415 26.68592617 52.78489795 20 63 C11.92316801 74.60163397 1.99718881 85.13510458 -12 89 C-22.40560398 90.13233949 -30.6486323 88.52743046 -40 84 C-41.70929687 83.18595703 -41.70929687 83.18595703 -43.453125 82.35546875 C-54.12412158 76.95906294 -60.61188987 71.278531 -65 60 C-66.45533311 53.95431995 -66.22364059 47.87207598 -66.25 41.6875 C-66.2809375 39.89022461 -66.2809375 39.89022461 -66.3125 38.05664062 C-66.35248837 28.98428023 -65.41144267 21.80338463 -59.05078125 14.921875 C-43.54032667 0.38636328 -20.99320659 -10.31936234 0 0 Z M-35 14 C-35 14.99 -35 15.98 -35 17 C-34.34 17 -33.68 17 -33 17 C-33 16.01 -33 15.02 -33 14 C-33.66 14 -34.32 14 -35 14 Z M-17 14 C-17 14.66 -17 15.32 -17 16 C-16.01 16 -15.02 16 -14 16 C-14 15.34 -14 14.68 -14 14 C-14.99 14 -15.98 14 -17 14 Z M-2 22 C-2 22.66 -2 23.32 -2 24 C-1.01 24 -0.02 24 1 24 C1 23.34 1 22.68 1 22 C0.01 22 -0.98 22 -2 22 Z M-49 28 C-49 28.99 -49 29.98 -49 31 C-48.34 31 -47.68 31 -47 31 C-47 30.01 -47 29.02 -47 28 C-47.66 28 -48.32 28 -49 28 Z M-33 31 C-33 31.99 -33 32.98 -33 34 C-32.34 34 -31.68 34 -31 34 C-31 33.01 -31 32.02 -31 31 C-31.66 31 -32.32 31 -33 31 Z M-15 31 C-15 31.99 -15 32.98 -15 34 C-14.34 34 -13.68 34 -13 34 C-13 33.01 -13 32.02 -13 31 C-13.66 31 -14.32 31 -15 31 Z M3 37 C3 37.99 3 38.98 3 40 C3.66 40 4.32 40 5 40 C5 39.01 5 38.02 5 37 C4.34 37 3.68 37 3 37 Z M-51 46 C-51 46.66 -51 47.32 -51 48 C-50.01 48 -49.02 48 -48 48 C-48 47.34 -48 46.68 -48 46 C-48.99 46 -49.98 46 -51 46 Z M-10 48 C-10 48.66 -10 49.32 -10 50 C-9.01 50 -8.02 50 -7 50 C-7 49.34 -7 48.68 -7 48 C-7.99 48 -8.98 48 -10 48 Z M-29 49 C-29 49.99 -29 50.98 -29 52 C-28.34 52 -27.68 52 -27 52 C-27 51.01 -27 50.02 -27 49 C-27.66 49 -28.32 49 -29 49 Z M8 52 C8 52.66 8 53.32 8 54 C8.99 54 9.98 54 11 54 C11 53.34 11 52.68 11 52 C10.01 52 9.02 52 8 52 Z M-40 60 C-40 60.66 -40 61.32 -40 62 C-39.01 62 -38.02 62 -37 62 C-37 61.34 -37 60.68 -37 60 C-37.99 60 -38.98 60 -40 60 Z M-9 64 C-9 64.66 -9 65.32 -9 66 C-8.01 66 -7.02 66 -6 66 C-6 65.34 -6 64.68 -6 64 C-6.99 64 -7.98 64 -9 64 Z M-25 69 C-25 69.99 -25 70.98 -25 72 C-24.34 72 -23.68 72 -23 72 C-23 71.01 -23 70.02 -23 69 C-23.66 69 -24.32 69 -25 69 Z " fill="#FFFFFF" transform="translate(70,7)"/>
</svg>
