<?xml version="1.0" encoding="UTF-8"?>
<svg version="1.1" xmlns="http://www.w3.org/2000/svg" width="100" height="100">
<path d="M0 0 C29.04 0 58.08 0 88 0 C88 18.68115942 88 18.68115942 83 26 C82.401875 26.9075 81.80375 27.815 81.1875 28.75 C73.43158266 36.72751498 64.22026219 42.05966151 53.0234375 42.23828125 C50.88099414 42.26353855 48.73875471 42.2835397 46.59619141 42.29516602 C45.12604105 42.30663894 43.6559308 42.32701612 42.18603516 42.35668945 C33.76773396 42.52649742 26.40669207 42.56072931 19 38 C17.9275 37.360625 16.855 36.72125 15.75 36.0625 C8.6546072 30.7409554 3.2854166 24.2135415 0 16 C0 10.72 0 5.44 0 0 Z M5 8 C5 9.32 5 10.64 5 12 C28.43 12 51.86 12 76 12 C76 10.68 76 9.36 76 8 C52.57 8 29.14 8 5 8 Z " fill="#FFFFFF" transform="translate(6,52)"/>
<path d="M0 0 C5.60980903 0.43402778 5.60980903 0.43402778 7.83203125 2.65625 C8.55457131 6.02810361 8.79511326 7.44062617 7.83203125 10.65625 C4.88829943 14.43011419 1.42867477 17.51365084 -2.16796875 20.65625 C-2.96332031 21.3678125 -3.75867188 22.079375 -4.578125 22.8125 C-6.42475349 24.44798948 -8.29207705 26.05464011 -10.16796875 27.65625 C-10.49796875 27.98625 -10.82796875 28.31625 -11.16796875 28.65625 C-13.5211043 28.72896741 -15.87630543 28.73995868 -18.23046875 28.71875 C-19.52082031 28.70972656 -20.81117187 28.70070313 -22.140625 28.69140625 C-23.13964844 28.67980469 -24.13867188 28.66820313 -25.16796875 28.65625 C-20.04074696 21.53510863 -14.36324505 14.93410411 -8.5925293 8.33300781 C-7.64322858 7.21564752 -6.72221016 6.07362928 -5.83129883 4.90917969 C-2.6709068 0.80849071 -2.6709068 0.80849071 0 0 Z " fill="#FFFFFF" transform="translate(86.16796875,19.34375)"/>
<path d="M0 0 C1.32 0 2.64 0 4 0 C3.97679687 1.03640625 3.95359375 2.0728125 3.9296875 3.140625 C3.91092333 4.51040944 3.89272382 5.8802017 3.875 7.25 C3.85824219 7.93191406 3.84148438 8.61382812 3.82421875 9.31640625 C3.78727877 13.12122371 4.02401176 15.73887654 6 19 C7.37268499 24.83391121 6.55052413 29.3489162 5 35 C2.525 35.495 2.525 35.495 0 36 C0.03480469 35.02160156 0.06960937 34.04320312 0.10546875 33.03515625 C0.43622379 24.47369394 0.43622379 24.47369394 -1.625 16.25 C-3.74224302 11.0657227 -2.53508083 6.24173944 -1 1 C-0.67 0.67 -0.34 0.34 0 0 Z " fill="#FFFFFF" transform="translate(48,8)"/>
<path d="M0 0 C1.32 0 2.64 0 4 0 C3.97679687 1.03640625 3.95359375 2.0728125 3.9296875 3.140625 C3.91092333 4.51040944 3.89272382 5.8802017 3.875 7.25 C3.85824219 7.93191406 3.84148438 8.61382812 3.82421875 9.31640625 C3.78727877 13.12122371 4.02401176 15.73887654 6 19 C7.37268499 24.83391121 6.55052413 29.3489162 5 35 C2.525 35.495 2.525 35.495 0 36 C0.03480469 35.02160156 0.06960937 34.04320312 0.10546875 33.03515625 C0.43622379 24.47369394 0.43622379 24.47369394 -1.625 16.25 C-3.74224302 11.0657227 -2.53508083 6.24173944 -1 1 C-0.67 0.67 -0.34 0.34 0 0 Z " fill="#FFFFFF" transform="translate(34,8)"/>
<path d="M0 0 C1.32 0 2.64 0 4 0 C3.97679687 1.03640625 3.95359375 2.0728125 3.9296875 3.140625 C3.91092333 4.51040944 3.89272382 5.8802017 3.875 7.25 C3.85824219 7.93191406 3.84148438 8.61382812 3.82421875 9.31640625 C3.78727877 13.12122371 4.02401176 15.73887654 6 19 C7.37268499 24.83391121 6.55052413 29.3489162 5 35 C2.525 35.495 2.525 35.495 0 36 C0.03480469 35.02160156 0.06960937 34.04320312 0.10546875 33.03515625 C0.43622379 24.47369394 0.43622379 24.47369394 -1.625 16.25 C-3.74224302 11.0657227 -2.53508083 6.24173944 -1 1 C-0.67 0.67 -0.34 0.34 0 0 Z " fill="#FFFFFF" transform="translate(20,8)"/>
</svg>
