<?xml version="1.0" encoding="UTF-8"?>
<svg version="1.1" xmlns="http://www.w3.org/2000/svg" width="16" height="16">
<path d="M0 0 C5.28 0 10.56 0 16 0 C16 5.28 16 10.56 16 16 C10.72 16 5.44 16 0 16 C0 10.72 0 5.44 0 0 Z " fill="#49403C" transform="translate(0,0)"/>
<path d="M0 0 C1.65 0 3.3 0 5 0 C5 2.31 5 4.62 5 7 C7.97 7 10.94 7 14 7 C14 9.31 14 11.62 14 14 C11.36 14 8.72 14 6 14 C6 12.35 6 10.7 6 9 C6.33 10.32 6.66 11.64 7 13 C7.33 11.68 7.66 10.36 8 9 C7.01 8.67 6.02 8.34 5 8 C5 9.98 5 11.96 5 14 C3.35 14 1.7 14 0 14 C0 11.03 0 8.06 0 5 C0.66 5 1.32 5 2 5 C2.33 4.01 2.66 3.02 3 2 C3.33 1.67 3.66 1.34 4 1 C2.68 0.67 1.36 0.34 0 0 Z " fill="#C8C5BC" transform="translate(1,1)"/>
<path d="M0 0 C5.28 0 10.56 0 16 0 C15.67 0.66 15.34 1.32 15 2 C13.02 2 11.04 2 9 2 C9 2.99 9 3.98 9 5 C10.65 5 12.3 5 14 5 C14 5.33 14 5.66 14 6 C12.02 6 10.04 6 8 6 C8 6.66 8 7.32 8 8 C7.34 8 6.68 8 6 8 C6 5.69 6 3.38 6 1 C4.68737429 2.08552366 4.68737429 2.08552366 4.90234375 4.72265625 C4.91394531 5.82480469 4.92554688 6.92695313 4.9375 8.0625 C4.94652344 9.16722656 4.95554687 10.27195312 4.96484375 11.41015625 C4.97644531 12.26480469 4.98804688 13.11945312 5 14 C4.67 14 4.34 14 4 14 C3.67 11.36 3.34 8.72 3 6 C2.01 6 1.02 6 0 6 C0 4.02 0 2.04 0 0 Z " fill="#40383B" transform="translate(0,0)"/>
<path d="M0 0 C2.64 0 5.28 0 8 0 C8 1.98 8 3.96 8 6 C5.69 6 3.38 6 1 6 C1.33 4.35 1.66 2.7 2 1 C1.34 0.67 0.68 0.34 0 0 Z " fill="#DFDDDC" transform="translate(7,1)"/>
<path d="M0 0 C0.33 0 0.66 0 1 0 C1 3.96 1 7.92 1 12 C0.01 12 -0.98 12 -2 12 C-2 9.03 -2 6.06 -2 3 C-1.34 3 -0.68 3 0 3 C0 2.01 0 1.02 0 0 Z " fill="#E4E2E2" transform="translate(3,3)"/>
<path d="M0 0 C0.99 0.33 1.98 0.66 3 1 C3 1.99 3 2.98 3 4 C4.65 4 6.3 4 8 4 C8 4.33 8 4.66 8 5 C6.02 5 4.04 5 2 5 C2 5.66 2 6.32 2 7 C1.34 7 0.68 7 0 7 C0 4.69 0 2.38 0 0 Z " fill="#693837" transform="translate(6,1)"/>
</svg>
