<?xml version="1.0" encoding="UTF-8"?>
<svg version="1.1" xmlns="http://www.w3.org/2000/svg" width="512" height="512">
<path d="M0 0 C168.96 0 337.92 0 512 0 C512 168.96 512 337.92 512 512 C343.04 512 174.08 512 0 512 C0 343.04 0 174.08 0 0 Z " fill="#221714" transform="translate(0,0)"/>
<path d="M0 0 C52.47 0 104.94 0 159 0 C159 73.92 159 147.84 159 224 C254.04 224 349.08 224 447 224 C447 255.35 447 286.7 447 319 C404.76 319 362.52 319 319 319 C319 329.56 319 340.12 319 351 C361.24 351 403.48 351 447 351 C447 382.68 447 414.36 447 447 C362.52 447 278.04 447 191 447 C191 394.2 191 341.4 191 287 C201.56 287 212.12 287 223 287 C223 329.24 223 371.48 223 415 C286.36 415 349.72 415 415 415 C415 404.44 415 393.88 415 383 C362.2 383 309.4 383 255 383 C255 351.32 255 319.64 255 287 C307.8 287 360.6 287 415 287 C415 276.44 415 265.88 415 255 C330.52 255 246.04 255 159 255 C159 318.36 159 381.72 159 447 C106.2 447 53.4 447 -1 447 C-1.04033135 375.01750444 -1.04033135 375.01750444 -1.04882812 345.02929688 C-1.05078614 338.16463214 -1.05280666 331.29996742 -1.05493164 324.43530273 C-1.05519539 323.57487214 -1.05545914 322.71444155 -1.05573088 321.8279373 C-1.06008584 307.91828958 -1.06797276 294.00864598 -1.0771528 280.0990007 C-1.08648862 265.8348496 -1.09205546 251.57070066 -1.09408849 237.30654663 C-1.09546387 228.49753433 -1.09981525 219.68853366 -1.10791647 210.87952494 C-1.11318304 204.84727242 -1.1148045 198.81502595 -1.11350138 192.7827713 C-1.11285786 189.29715579 -1.11387707 185.81156065 -1.11920547 182.32594872 C-1.12413499 178.55591065 -1.12300104 174.78592349 -1.12025452 171.0158844 C-1.12316736 169.90209508 -1.1260802 168.78830576 -1.12908131 167.64076525 C-1.12709026 166.63903967 -1.12509921 165.63731409 -1.12304783 164.60523319 C-1.12342755 163.73377503 -1.12380727 162.86231688 -1.1241985 161.9644509 C-1 160 -1 160 0 159 C1.96369153 158.9059933 3.93079199 158.88256619 5.89672852 158.88647461 C7.17567993 158.88659546 8.45463135 158.88671631 9.77233887 158.88684082 C11.14119515 158.89187729 12.51005096 158.89704393 13.87890625 158.90234375 C15.11636597 158.90335083 16.35382568 158.90435791 17.62878418 158.90539551 C22.27336548 158.91064715 26.91793362 158.92460825 31.5625 158.9375 C41.936875 158.958125 52.31125 158.97875 63 159 C63 127.65 63 96.3 63 64 C73.56 64 84.12 64 95 64 C95 179.83 95 295.66 95 415 C105.56 415 116.12 415 127 415 C127 288.28 127 161.56 127 31 C85.09 31 43.18 31 0 31 C0 20.77 0 10.54 0 0 Z " fill="#FDFDFD" transform="translate(33,33)"/>
<path d="M0 0 C84.48 0 168.96 0 256 0 C256 63.03 256 126.06 256 191 C182.08 191 108.16 191 32 191 C32 180.77 32 170.54 32 160 C95.36 160 158.72 160 224 160 C224 149.11 224 138.22 224 127 C171.2 127 118.4 127 64 127 C64 95.65 64 64.3 64 32 C42.88 32 21.76 32 0 32 C0 21.44 0 10.88 0 0 Z " fill="#FEFEFE" transform="translate(224,33)"/>
<path d="M0 0 C10.56 0 21.12 0 32 0 C32 41.91 32 83.82 32 127 C95.36 127 158.72 127 224 127 C224 127.33 224 127.66 224 128 C160.64 128 97.28 128 32 128 C32 138.23 32 148.46 32 159 C21.44 159 10.88 159 0 159 C0 106.53 0 54.06 0 0 Z " fill="#D2191C" transform="translate(224,65)"/>
<path d="M0 0 C52.8 0 105.6 0 160 0 C160 0.33 160 0.66 160 1 C117.76 1 75.52 1 32 1 C32 32.35 32 63.7 32 96 C21.44 96 10.88 96 0 96 C0 64.32 0 32.64 0 0 Z " fill="#EDE12A" transform="translate(288,320)"/>
<path d="M0 0 C0.33 0 0.66 0 1 0 C1 10.23 1 20.46 1 31 C42.91 31 84.82 31 128 31 C128 31.33 128 31.66 128 32 C96.32 32 64.64 32 32 32 C32 63.35 32 94.7 32 127 C21.44 127 10.88 127 0 127 C0 85.09 0 43.18 0 0 Z " fill="#222D74" transform="translate(32,33)"/>
</svg>
